<mxfile host="app.diagrams.net" modified="2023-11-09T10:02:24.182Z" agent="Mozilla/5.0 (Windows NT 10.0; Win64; x64) AppleWebKit/537.36 (KHTML, like Gecko) Chrome/119.0.0.0 Safari/537.36" etag="ktlpLbCvtTp7SUDP-6AD" version="22.1.0" type="device">
  <diagram name="Page-1" id="8V8gVpx-DtALXzJJkFtI">
    <mxGraphModel dx="2261" dy="750" grid="1" gridSize="10" guides="1" tooltips="1" connect="1" arrows="1" fold="1" page="1" pageScale="1" pageWidth="827" pageHeight="1169" math="0" shadow="0">
      <root>
        <mxCell id="0" />
        <mxCell id="1" parent="0" />
        <mxCell id="B4pwUpGr7fj1oQuryOjf-1" value="" style="rounded=0;whiteSpace=wrap;html=1;" vertex="1" parent="1">
          <mxGeometry x="60" y="150" width="1080" height="580" as="geometry" />
        </mxCell>
        <mxCell id="B4pwUpGr7fj1oQuryOjf-15" value="" style="edgeStyle=orthogonalEdgeStyle;rounded=0;orthogonalLoop=1;jettySize=auto;html=1;" edge="1" parent="1" source="B4pwUpGr7fj1oQuryOjf-2" target="B4pwUpGr7fj1oQuryOjf-3">
          <mxGeometry relative="1" as="geometry" />
        </mxCell>
        <mxCell id="B4pwUpGr7fj1oQuryOjf-2" value="API Gateway" style="rounded=0;whiteSpace=wrap;html=1;" vertex="1" parent="1">
          <mxGeometry x="110" y="340" width="120" height="60" as="geometry" />
        </mxCell>
        <mxCell id="B4pwUpGr7fj1oQuryOjf-3" value="Auth Server" style="rounded=0;whiteSpace=wrap;html=1;" vertex="1" parent="1">
          <mxGeometry x="110" y="460" width="120" height="60" as="geometry" />
        </mxCell>
        <mxCell id="B4pwUpGr7fj1oQuryOjf-4" value="" style="rounded=0;whiteSpace=wrap;html=1;" vertex="1" parent="1">
          <mxGeometry x="280" y="210" width="840" height="410" as="geometry" />
        </mxCell>
        <mxCell id="B4pwUpGr7fj1oQuryOjf-5" value="Treatment Service" style="rounded=0;whiteSpace=wrap;html=1;" vertex="1" parent="1">
          <mxGeometry x="360" y="250" width="120" height="60" as="geometry" />
        </mxCell>
        <mxCell id="B4pwUpGr7fj1oQuryOjf-6" value="Reservation Service" style="rounded=0;whiteSpace=wrap;html=1;" vertex="1" parent="1">
          <mxGeometry x="500" y="430" width="120" height="60" as="geometry" />
        </mxCell>
        <mxCell id="B4pwUpGr7fj1oQuryOjf-7" value="Treatment Availability&lt;br&gt;Service" style="rounded=0;whiteSpace=wrap;html=1;" vertex="1" parent="1">
          <mxGeometry x="860" y="270" width="120" height="60" as="geometry" />
        </mxCell>
        <mxCell id="B4pwUpGr7fj1oQuryOjf-8" value="Notification Service" style="rounded=0;whiteSpace=wrap;html=1;" vertex="1" parent="1">
          <mxGeometry x="860" y="470" width="120" height="60" as="geometry" />
        </mxCell>
        <mxCell id="B4pwUpGr7fj1oQuryOjf-9" value="Client" style="shape=umlActor;verticalLabelPosition=bottom;verticalAlign=top;html=1;outlineConnect=0;" vertex="1" parent="1">
          <mxGeometry x="-140" y="290" width="100" height="160" as="geometry" />
        </mxCell>
        <mxCell id="B4pwUpGr7fj1oQuryOjf-14" value="" style="endArrow=classic;html=1;rounded=0;exitX=0.5;exitY=0.5;exitDx=0;exitDy=0;exitPerimeter=0;" edge="1" parent="1" source="B4pwUpGr7fj1oQuryOjf-9" target="B4pwUpGr7fj1oQuryOjf-2">
          <mxGeometry width="50" height="50" relative="1" as="geometry">
            <mxPoint x="-30" y="370" as="sourcePoint" />
            <mxPoint x="20" y="320" as="targetPoint" />
          </mxGeometry>
        </mxCell>
        <mxCell id="B4pwUpGr7fj1oQuryOjf-17" value="" style="endArrow=classic;html=1;rounded=0;exitX=1;exitY=0.5;exitDx=0;exitDy=0;entryX=0;entryY=0.5;entryDx=0;entryDy=0;" edge="1" parent="1" source="B4pwUpGr7fj1oQuryOjf-2" target="B4pwUpGr7fj1oQuryOjf-6">
          <mxGeometry width="50" height="50" relative="1" as="geometry">
            <mxPoint x="490" y="410" as="sourcePoint" />
            <mxPoint x="540" y="360" as="targetPoint" />
          </mxGeometry>
        </mxCell>
        <mxCell id="B4pwUpGr7fj1oQuryOjf-18" value="" style="endArrow=classic;html=1;rounded=0;exitX=1;exitY=0.5;exitDx=0;exitDy=0;entryX=0;entryY=0.5;entryDx=0;entryDy=0;" edge="1" parent="1" source="B4pwUpGr7fj1oQuryOjf-2" target="B4pwUpGr7fj1oQuryOjf-5">
          <mxGeometry width="50" height="50" relative="1" as="geometry">
            <mxPoint x="490" y="410" as="sourcePoint" />
            <mxPoint x="540" y="360" as="targetPoint" />
          </mxGeometry>
        </mxCell>
        <mxCell id="B4pwUpGr7fj1oQuryOjf-19" value="" style="endArrow=classic;html=1;rounded=0;exitX=1;exitY=0.5;exitDx=0;exitDy=0;entryX=0;entryY=0.5;entryDx=0;entryDy=0;" edge="1" parent="1" source="B4pwUpGr7fj1oQuryOjf-6" target="B4pwUpGr7fj1oQuryOjf-7">
          <mxGeometry width="50" height="50" relative="1" as="geometry">
            <mxPoint x="490" y="410" as="sourcePoint" />
            <mxPoint x="540" y="360" as="targetPoint" />
          </mxGeometry>
        </mxCell>
        <mxCell id="B4pwUpGr7fj1oQuryOjf-20" value="" style="endArrow=classic;html=1;rounded=0;exitX=1;exitY=0.5;exitDx=0;exitDy=0;entryX=0;entryY=0.5;entryDx=0;entryDy=0;" edge="1" parent="1" source="B4pwUpGr7fj1oQuryOjf-6" target="B4pwUpGr7fj1oQuryOjf-8">
          <mxGeometry width="50" height="50" relative="1" as="geometry">
            <mxPoint x="490" y="410" as="sourcePoint" />
            <mxPoint x="540" y="360" as="targetPoint" />
          </mxGeometry>
        </mxCell>
        <mxCell id="B4pwUpGr7fj1oQuryOjf-21" value="Async Communication" style="text;html=1;strokeColor=none;fillColor=none;align=center;verticalAlign=middle;whiteSpace=wrap;rounded=0;" vertex="1" parent="1">
          <mxGeometry x="700" y="490" width="60" height="30" as="geometry" />
        </mxCell>
        <mxCell id="B4pwUpGr7fj1oQuryOjf-22" value="Sync Communication" style="text;html=1;strokeColor=none;fillColor=none;align=center;verticalAlign=middle;whiteSpace=wrap;rounded=0;" vertex="1" parent="1">
          <mxGeometry x="670" y="350" width="60" height="30" as="geometry" />
        </mxCell>
        <mxCell id="B4pwUpGr7fj1oQuryOjf-23" value="Mongo DB" style="strokeWidth=2;html=1;shape=mxgraph.flowchart.database;whiteSpace=wrap;" vertex="1" parent="1">
          <mxGeometry x="500" y="220" width="60" height="60" as="geometry" />
        </mxCell>
        <mxCell id="B4pwUpGr7fj1oQuryOjf-24" value="MySQL" style="strokeWidth=2;html=1;shape=mxgraph.flowchart.database;whiteSpace=wrap;" vertex="1" parent="1">
          <mxGeometry x="534" y="510" width="60" height="60" as="geometry" />
        </mxCell>
        <mxCell id="B4pwUpGr7fj1oQuryOjf-25" value="MySQL" style="strokeWidth=2;html=1;shape=mxgraph.flowchart.database;whiteSpace=wrap;" vertex="1" parent="1">
          <mxGeometry x="990" y="260" width="60" height="60" as="geometry" />
        </mxCell>
        <mxCell id="B4pwUpGr7fj1oQuryOjf-26" value="Eureka" style="rounded=0;whiteSpace=wrap;html=1;" vertex="1" parent="1">
          <mxGeometry x="230" y="650" width="120" height="60" as="geometry" />
        </mxCell>
        <mxCell id="B4pwUpGr7fj1oQuryOjf-27" value="Config Server" style="rounded=0;whiteSpace=wrap;html=1;" vertex="1" parent="1">
          <mxGeometry x="414" y="650" width="120" height="60" as="geometry" />
        </mxCell>
        <mxCell id="B4pwUpGr7fj1oQuryOjf-28" value="" style="shape=message;html=1;html=1;outlineConnect=0;labelPosition=center;verticalLabelPosition=bottom;align=center;verticalAlign=top;" vertex="1" parent="1">
          <mxGeometry x="990" y="540" width="50" height="30" as="geometry" />
        </mxCell>
      </root>
    </mxGraphModel>
  </diagram>
</mxfile>
